<svg id="Capa_1" enable-background="new 0 0 510.048 510.048" height="512" viewBox="0 0 510.048 510.048" width="512" xmlns="http://www.w3.org/2000/svg"><g><path d="m487.912 235.874c0 53.65-17.55 104.19-50.75 146.17l-11.77-9.3c-217.952 7.042-143.435 4.633-337.41 10.91l-11.15 10.04c-39.06-43.36-60.58-99.41-60.58-157.82 0-129.465 104.111-234.498 233.34-235.81 124.894-3.003 238.32 100.015 238.32 235.81z" fill="#ff415b"/><path d="m487.912 235.874c0 53.65-17.55 104.19-50.75 146.17l-11.77-9.3-175.8 5.68v-378.36c124.894-3.003 238.32 100.015 238.32 235.81z" fill="#c83c50"/><path d="m348.082 480.044v30h-345.93c81.156-141.118 44.758-77.823 185.93-323.33.15.263 51.75 89.99 55.08 95.78l-13 7.48c2.17 3.77 103.99 180.85 109.29 190.07z" fill="#a05f4b"/><path d="m348.082 480.044v30h-158.49c-.7-199.14-.88-248.48-1.15-322.7 5.787 10.06 45.061 78.353 54.72 95.15l-13 7.48c2.17 3.77 103.99 180.85 109.29 190.07z" fill="#724435"/><path d="m316.401 180.81c-69.889 35.32-66.709 33.664-66.809 33.764-44.925 93.929-84.202 176.051-141.311 295.47h399.601c.1 0 1.762 3.682-96.269-201.291z" fill="#c47e4e"/><path d="m411.612 308.754-71.53 10.29-24-32-32 8-34.12-81.24 58.12-121.53z" fill="#f1f6ff"/><path d="m507.882 510.044h-199.8v-221s14.685-116.286 17.511-122.191l86.049 141.962z" fill="#a05f4b"/><path d="m411.612 308.754-71.53 10.29-24-32-8 2v-196.77z" fill="#dfe5f2"/></g></svg>