<?xml version="1.0" encoding="UTF-8"?><svg xmlns="http://www.w3.org/2000/svg" xmlns:xlink="http://www.w3.org/1999/xlink" width="375pt" zoomAndPan="magnify" viewBox="0 0 375 374.999991" height="374.999991pt" preserveAspectRatio="xMidYMid meet" version="1.2"><defs><g/><clipPath xml:id="clip1" id="clip1"><path d="M 51.453125 90.363281 L 325.953125 90.363281 L 325.953125 214.863281 L 51.453125 214.863281 Z M 51.453125 90.363281 "/></clipPath></defs><g xml:id="surface1" id="surface1"><rect x="0" width="375" y="0" height="374.999991" style="fill:rgb(100%,100%,100%);fill-opacity:1;stroke:none;"/><rect x="0" width="375" y="0" height="374.999991" style="fill:rgb(100%,100%,100%);fill-opacity:1;stroke:none;"/><rect x="0" width="375" y="0" height="374.999991" style="fill:rgb(94.509888%,90.979004%,89.019775%);fill-opacity:1;stroke:none;"/><g clip-rule="nonzero" clip-path="url(#clip1)"><path style=" stroke:none;fill-rule:nonzero;fill:rgb(68.238831%,29.798889%,16.079712%);fill-opacity:1;" d="M 185.199219 157.976562 C 184.734375 157.976562 184.335938 157.632812 184.28125 157.164062 L 178.703125 111.632812 C 178.640625 111.125 179.003906 110.660156 179.511719 110.601562 C 180.027344 110.535156 180.484375 110.902344 180.546875 111.40625 L 186.125 156.9375 C 186.183594 157.445312 185.824219 157.910156 185.3125 157.96875 C 185.277344 157.976562 185.238281 157.976562 185.199219 157.976562 Z M 178.75 104.378906 C 179.261719 104.320312 179.621094 103.855469 179.5625 103.347656 L 178.90625 97.984375 C 178.84375 97.476562 178.386719 97.113281 177.871094 97.175781 C 177.363281 97.238281 177 97.699219 177.0625 98.207031 L 177.71875 103.570312 C 177.777344 104.042969 178.175781 104.386719 178.636719 104.386719 C 178.675781 104.386719 178.714844 104.386719 178.75 104.378906 Z M 178.007812 159.460938 C 178.503906 159.328125 178.800781 158.820312 178.667969 158.328125 L 170.980469 129.214844 C 170.851562 128.714844 170.347656 128.421875 169.847656 128.554688 C 169.351562 128.683594 169.054688 129.191406 169.1875 129.683594 L 176.875 158.800781 C 176.984375 159.214844 177.363281 159.492188 177.773438 159.492188 C 177.847656 159.492188 177.929688 159.480469 178.007812 159.460938 Z M 169.160156 125.949219 C 169.65625 125.820312 169.953125 125.3125 169.820312 124.820312 L 168.96875 121.601562 C 168.835938 121.105469 168.328125 120.808594 167.835938 120.941406 C 167.339844 121.070312 167.042969 121.578125 167.175781 122.070312 L 168.027344 125.289062 C 168.136719 125.703125 168.515625 125.984375 168.925781 125.984375 C 169 125.976562 169.078125 125.964844 169.160156 125.949219 Z M 164.292969 165.113281 C 164.734375 164.855469 164.882812 164.289062 164.625 163.847656 L 144.289062 129.269531 C 144.03125 128.824219 143.464844 128.679688 143.019531 128.941406 C 142.578125 129.195312 142.429688 129.765625 142.6875 130.207031 L 163.019531 164.785156 C 163.195312 165.078125 163.5 165.242188 163.824219 165.242188 C 163.980469 165.238281 164.144531 165.199219 164.292969 165.113281 Z M 139.347656 122.6875 C 139.789062 122.429688 139.9375 121.863281 139.679688 121.421875 L 136.886719 116.667969 C 136.628906 116.226562 136.058594 116.078125 135.617188 116.339844 C 135.171875 116.597656 135.027344 117.164062 135.28125 117.605469 L 138.078125 122.359375 C 138.253906 122.652344 138.558594 122.816406 138.882812 122.816406 C 139.039062 122.816406 139.199219 122.773438 139.347656 122.6875 Z M 170.964844 161.8125 C 171.441406 161.613281 171.660156 161.074219 171.460938 160.601562 L 156.835938 125.53125 C 156.636719 125.054688 156.097656 124.832031 155.621094 125.027344 C 155.144531 125.222656 154.925781 125.765625 155.121094 126.238281 L 169.75 161.308594 C 169.898438 161.664062 170.242188 161.882812 170.609375 161.882812 C 170.722656 161.882812 170.84375 161.859375 170.964844 161.8125 Z M 153.875 120.835938 C 154.351562 120.640625 154.570312 120.101562 154.378906 119.625 L 152.523438 115.183594 C 152.328125 114.714844 151.785156 114.484375 151.3125 114.683594 C 150.835938 114.878906 150.617188 115.417969 150.808594 115.894531 L 152.660156 120.335938 C 152.808594 120.691406 153.152344 120.90625 153.519531 120.90625 C 153.636719 120.90625 153.753906 120.886719 153.875 120.835938 Z M 149.898438 111.308594 C 150.375 111.113281 150.59375 110.574219 150.398438 110.097656 L 145.875 99.261719 C 145.679688 98.785156 145.136719 98.5625 144.660156 98.757812 C 144.183594 98.957031 143.964844 99.496094 144.164062 99.96875 L 148.6875 110.808594 C 148.832031 111.164062 149.179688 111.378906 149.542969 111.378906 C 149.664062 111.378906 149.785156 111.359375 149.898438 111.308594 Z M 158.976562 168.703125 C 159.386719 168.398438 159.46875 167.8125 159.15625 167.40625 L 131.453125 130.8125 C 131.144531 130.402344 130.5625 130.320312 130.152344 130.632812 C 129.742188 130.9375 129.660156 131.519531 129.972656 131.929688 L 157.675781 168.523438 C 157.855469 168.761719 158.136719 168.890625 158.421875 168.890625 C 158.617188 168.894531 158.8125 168.828125 158.976562 168.703125 Z M 126.375 125.632812 C 126.785156 125.328125 126.867188 124.742188 126.554688 124.335938 L 123.289062 120.023438 C 122.976562 119.613281 122.398438 119.53125 121.988281 119.84375 C 121.578125 120.148438 121.496094 120.734375 121.808594 121.144531 L 125.074219 125.453125 C 125.253906 125.695312 125.53125 125.820312 125.816406 125.820312 C 126.007812 125.824219 126.203125 125.757812 126.375 125.632812 Z M 153.308594 173.585938 C 153.671875 173.226562 153.671875 172.644531 153.3125 172.277344 L 132.050781 150.917969 C 131.691406 150.554688 131.097656 150.554688 130.738281 150.914062 C 130.378906 151.273438 130.371094 151.859375 130.734375 152.222656 L 151.996094 173.582031 C 152.175781 173.761719 152.414062 173.855469 152.652344 173.855469 C 152.890625 173.855469 153.125 173.765625 153.308594 173.585938 Z M 128.835938 149.003906 C 129.203125 148.644531 129.203125 148.0625 128.839844 147.695312 L 126.488281 145.332031 C 126.128906 144.964844 125.539062 144.964844 125.175781 145.328125 C 124.808594 145.6875 124.808594 146.269531 125.171875 146.636719 L 127.523438 149 C 127.703125 149.179688 127.945312 149.273438 128.179688 149.273438 C 128.417969 149.273438 128.65625 149.183594 128.835938 149.003906 Z M 144.25 185.4375 C 144.503906 184.996094 144.347656 184.429688 143.90625 184.179688 L 109.015625 164.320312 C 108.570312 164.066406 108.003906 164.222656 107.75 164.664062 C 107.496094 165.105469 107.648438 165.675781 108.09375 165.925781 L 142.980469 185.78125 C 143.128906 185.863281 143.28125 185.902344 143.441406 185.902344 C 143.765625 185.910156 144.082031 185.738281 144.25 185.4375 Z M 101.445312 161.074219 C 101.695312 160.632812 101.542969 160.066406 101.097656 159.8125 L 96.304688 157.085938 C 95.855469 156.828125 95.292969 156.988281 95.035156 157.429688 C 94.777344 157.871094 94.9375 158.4375 95.378906 158.691406 L 100.175781 161.417969 C 100.324219 161.5 100.476562 161.539062 100.632812 161.539062 C 100.960938 161.542969 101.273438 161.375 101.445312 161.074219 Z M 148.359375 179.203125 C 148.667969 178.796875 148.59375 178.214844 148.1875 177.902344 L 117.980469 154.804688 C 117.574219 154.492188 116.992188 154.570312 116.679688 154.972656 C 116.367188 155.378906 116.445312 155.960938 116.847656 156.273438 L 147.054688 179.371094 C 147.226562 179.503906 147.421875 179.5625 147.621094 179.5625 C 147.898438 179.5625 148.175781 179.441406 148.359375 179.203125 Z M 113.0625 152.214844 C 113.375 151.808594 113.300781 151.226562 112.894531 150.914062 L 109.066406 147.988281 C 108.660156 147.679688 108.078125 147.753906 107.765625 148.160156 C 107.453125 148.5625 107.53125 149.144531 107.933594 149.457031 L 111.761719 152.382812 C 111.933594 152.511719 112.128906 152.574219 112.324219 152.574219 C 112.605469 152.578125 112.882812 152.453125 113.0625 152.214844 Z M 104.855469 145.9375 C 105.167969 145.535156 105.089844 144.949219 104.6875 144.640625 L 95.351562 137.5 C 94.945312 137.191406 94.363281 137.265625 94.050781 137.671875 C 93.738281 138.074219 93.816406 138.660156 94.21875 138.96875 L 103.554688 146.105469 C 103.722656 146.238281 103.921875 146.296875 104.117188 146.296875 C 104.398438 146.304688 104.675781 146.179688 104.855469 145.9375 Z M 141.378906 191.148438 C 141.582031 190.675781 141.359375 190.132812 140.886719 189.929688 L 98.59375 172.015625 C 98.117188 171.8125 97.578125 172.039062 97.375 172.507812 C 97.171875 172.976562 97.398438 173.523438 97.867188 173.722656 L 140.160156 191.636719 C 140.28125 191.6875 140.402344 191.714844 140.523438 191.714844 C 140.886719 191.714844 141.230469 191.5 141.378906 191.148438 Z M 91.601562 170.0625 C 91.800781 169.59375 91.578125 169.046875 91.109375 168.84375 L 86.125 166.734375 C 85.652344 166.53125 85.109375 166.753906 84.90625 167.222656 C 84.703125 167.695312 84.929688 168.238281 85.398438 168.441406 L 90.378906 170.554688 C 90.5 170.601562 90.621094 170.628906 90.742188 170.628906 C 91.109375 170.628906 91.453125 170.417969 91.601562 170.0625 Z M 138.957031 198.164062 C 139.09375 197.667969 138.800781 197.160156 138.308594 197.027344 L 109.199219 189.15625 C 108.699219 189.019531 108.191406 189.3125 108.058594 189.804688 C 107.921875 190.296875 108.21875 190.808594 108.710938 190.9375 L 137.820312 198.8125 C 137.902344 198.835938 137.984375 198.847656 138.066406 198.847656 C 138.472656 198.847656 138.84375 198.578125 138.957031 198.164062 Z M 105.453125 189.101562 C 105.589844 188.609375 105.292969 188.097656 104.800781 187.964844 L 101.582031 187.09375 C 101.082031 186.960938 100.574219 187.25 100.441406 187.742188 C 100.304688 188.234375 100.601562 188.746094 101.09375 188.875 L 104.316406 189.75 C 104.398438 189.773438 104.480469 189.78125 104.5625 189.78125 C 104.964844 189.78125 105.335938 189.515625 105.453125 189.101562 Z M 137.546875 205.460938 C 137.613281 204.953125 137.25 204.488281 136.742188 204.421875 L 99.003906 199.566406 C 98.496094 199.507812 98.03125 199.859375 97.964844 200.367188 C 97.898438 200.875 98.261719 201.339844 98.769531 201.40625 L 136.507812 206.261719 C 136.546875 206.265625 136.589844 206.265625 136.628906 206.265625 C 137.085938 206.265625 137.488281 205.929688 137.546875 205.460938 Z M 93.460938 199.785156 C 93.523438 199.277344 93.164062 198.8125 92.65625 198.746094 L 87.875 198.132812 C 87.375 198.066406 86.902344 198.425781 86.835938 198.933594 C 86.773438 199.441406 87.132812 199.90625 87.640625 199.96875 L 92.421875 200.585938 C 92.457031 200.59375 92.503906 200.59375 92.539062 200.59375 C 93 200.59375 93.398438 200.253906 93.460938 199.785156 Z M 83.207031 198.46875 C 83.273438 197.960938 82.910156 197.5 82.402344 197.433594 L 70.738281 195.933594 C 70.230469 195.871094 69.765625 196.226562 69.699219 196.734375 C 69.632812 197.242188 69.992188 197.707031 70.503906 197.769531 L 82.167969 199.273438 C 82.207031 199.277344 82.25 199.277344 82.289062 199.277344 C 82.746094 199.277344 83.144531 198.933594 83.207031 198.46875 Z M 247.847656 206.605469 L 293.449219 201.039062 C 293.957031 200.980469 294.316406 200.515625 294.257812 200.007812 C 294.199219 199.5 293.734375 199.136719 293.222656 199.199219 L 247.621094 204.765625 C 247.113281 204.828125 246.753906 205.289062 246.8125 205.796875 C 246.875 206.265625 247.273438 206.609375 247.730469 206.609375 C 247.769531 206.609375 247.808594 206.609375 247.847656 206.605469 Z M 301.519531 200.050781 L 306.894531 199.398438 C 307.402344 199.335938 307.765625 198.875 307.703125 198.367188 C 307.644531 197.859375 307.179688 197.492188 306.671875 197.558594 L 301.296875 198.214844 C 300.789062 198.273438 300.425781 198.738281 300.488281 199.246094 C 300.546875 199.714844 300.945312 200.058594 301.40625 200.058594 C 301.441406 200.058594 301.480469 200.058594 301.519531 200.050781 Z M 246.453125 199.167969 L 275.617188 191.492188 C 276.113281 191.359375 276.410156 190.851562 276.277344 190.359375 C 276.144531 189.863281 275.636719 189.570312 275.144531 189.699219 L 245.980469 197.378906 C 245.484375 197.507812 245.1875 198.015625 245.320312 198.507812 C 245.429688 198.921875 245.808594 199.195312 246.21875 199.195312 C 246.292969 199.195312 246.375 199.191406 246.453125 199.167969 Z M 280.019531 190.328125 L 283.242188 189.476562 C 283.742188 189.347656 284.035156 188.839844 283.90625 188.347656 C 283.773438 187.851562 283.265625 187.554688 282.773438 187.6875 L 279.546875 188.539062 C 279.050781 188.667969 278.753906 189.175781 278.886719 189.667969 C 278.996094 190.082031 279.371094 190.355469 279.78125 190.355469 C 279.859375 190.359375 279.941406 190.351562 280.019531 190.328125 Z M 240.929688 185.140625 L 275.5625 164.839844 C 276.003906 164.582031 276.152344 164.015625 275.890625 163.574219 C 275.632812 163.132812 275.058594 162.984375 274.621094 163.246094 L 239.988281 183.546875 C 239.546875 183.800781 239.398438 184.371094 239.660156 184.8125 C 239.835938 185.105469 240.140625 185.269531 240.457031 185.269531 C 240.617188 185.265625 240.78125 185.226562 240.929688 185.140625 Z M 283.417969 160.234375 L 288.175781 157.445312 C 288.621094 157.191406 288.765625 156.621094 288.503906 156.179688 C 288.242188 155.738281 287.671875 155.589844 287.234375 155.851562 L 282.480469 158.640625 C 282.035156 158.898438 281.886719 159.464844 282.152344 159.90625 C 282.324219 160.203125 282.632812 160.367188 282.953125 160.367188 C 283.113281 160.359375 283.269531 160.320312 283.417969 160.234375 Z M 244.175781 191.96875 L 279.300781 177.367188 C 279.777344 177.171875 279.996094 176.632812 279.800781 176.15625 C 279.601562 175.6875 279.0625 175.457031 278.585938 175.660156 L 243.460938 190.261719 C 242.984375 190.460938 242.765625 191 242.964844 191.472656 C 243.109375 191.828125 243.457031 192.042969 243.820312 192.042969 C 243.941406 192.042969 244.0625 192.015625 244.175781 191.96875 Z M 285.21875 174.90625 L 289.664062 173.058594 C 290.140625 172.859375 290.359375 172.320312 290.160156 171.847656 C 289.964844 171.378906 289.421875 171.148438 288.949219 171.351562 L 284.5 173.199219 C 284.027344 173.394531 283.808594 173.9375 284.003906 174.410156 C 284.152344 174.765625 284.496094 174.976562 284.863281 174.976562 C 284.976562 174.976562 285.097656 174.957031 285.21875 174.90625 Z M 294.761719 170.941406 L 305.617188 166.429688 C 306.089844 166.230469 306.308594 165.691406 306.113281 165.214844 C 305.917969 164.746094 305.375 164.519531 304.898438 164.71875 L 294.042969 169.234375 C 293.570312 169.429688 293.351562 169.96875 293.546875 170.445312 C 293.695312 170.796875 294.039062 171.011719 294.40625 171.011719 C 294.519531 171.011719 294.644531 170.988281 294.761719 170.941406 Z M 237.363281 179.6875 L 274.011719 152.027344 C 274.421875 151.714844 274.503906 151.136719 274.195312 150.730469 C 273.882812 150.320312 273.300781 150.238281 272.890625 150.546875 L 236.242188 178.207031 C 235.832031 178.519531 235.75 179.097656 236.0625 179.507812 C 236.242188 179.746094 236.519531 179.875 236.800781 179.875 C 236.996094 179.875 237.195312 179.8125 237.363281 179.6875 Z M 280.5 147.132812 L 284.820312 143.875 C 285.230469 143.5625 285.3125 142.984375 285 142.578125 C 284.6875 142.167969 284.109375 142.085938 283.699219 142.398438 L 279.378906 145.652344 C 278.96875 145.964844 278.886719 146.542969 279.199219 146.953125 C 279.378906 147.191406 279.65625 147.320312 279.9375 147.320312 C 280.132812 147.320312 280.328125 147.257812 280.5 147.132812 Z M 232.484375 173.84375 L 253.878906 152.617188 C 254.246094 152.257812 254.246094 151.667969 253.882812 151.308594 C 253.523438 150.941406 252.933594 150.941406 252.570312 151.300781 L 231.179688 172.527344 C 230.8125 172.886719 230.8125 173.476562 231.171875 173.839844 C 231.351562 174.019531 231.59375 174.109375 231.828125 174.109375 C 232.070312 174.117188 232.304688 174.023438 232.484375 173.84375 Z M 257.105469 149.414062 L 259.472656 147.066406 C 259.832031 146.707031 259.839844 146.117188 259.476562 145.757812 C 259.117188 145.398438 258.527344 145.390625 258.164062 145.753906 L 255.796875 148.097656 C 255.4375 148.457031 255.429688 149.046875 255.792969 149.410156 C 255.972656 149.589844 256.214844 149.679688 256.449219 149.679688 C 256.6875 149.679688 256.925781 149.59375 257.105469 149.414062 Z M 220.570312 164.453125 L 240.457031 129.621094 C 240.710938 129.179688 240.558594 128.613281 240.113281 128.363281 C 239.671875 128.105469 239.101562 128.261719 238.851562 128.707031 L 218.960938 163.535156 C 218.710938 163.976562 218.863281 164.546875 219.304688 164.796875 C 219.449219 164.878906 219.605469 164.917969 219.765625 164.917969 C 220.082031 164.921875 220.394531 164.753906 220.570312 164.453125 Z M 244.96875 121.714844 L 247.703125 116.929688 C 247.957031 116.488281 247.800781 115.921875 247.359375 115.667969 C 246.910156 115.414062 246.347656 115.570312 246.097656 116.011719 L 243.363281 120.800781 C 243.109375 121.242188 243.265625 121.808594 243.707031 122.058594 C 243.847656 122.140625 244.007812 122.179688 244.167969 122.179688 C 244.484375 122.183594 244.796875 122.015625 244.96875 121.714844 Z M 226.847656 168.730469 L 249.984375 138.570312 C 250.296875 138.167969 250.21875 137.582031 249.808594 137.273438 C 249.40625 136.960938 248.820312 137.039062 248.507812 137.449219 L 225.371094 167.605469 C 225.058594 168.011719 225.136719 168.59375 225.546875 168.90625 C 225.714844 169.035156 225.914062 169.097656 226.109375 169.097656 C 226.386719 169.089844 226.667969 168.964844 226.847656 168.730469 Z M 253.878906 133.492188 L 256.808594 129.671875 C 257.121094 129.269531 257.042969 128.683594 256.632812 128.371094 C 256.230469 128.0625 255.644531 128.136719 255.332031 128.546875 L 252.402344 132.367188 C 252.089844 132.769531 252.167969 133.355469 252.578125 133.664062 C 252.746094 133.796875 252.941406 133.855469 253.140625 133.855469 C 253.417969 133.851562 253.699219 133.730469 253.878906 133.492188 Z M 260.160156 125.296875 L 267.308594 115.976562 C 267.621094 115.570312 267.542969 114.988281 267.132812 114.675781 C 266.730469 114.367188 266.144531 114.441406 265.832031 114.851562 L 258.683594 124.171875 C 258.375 124.574219 258.449219 125.160156 258.859375 125.46875 C 259.03125 125.601562 259.226562 125.660156 259.421875 125.660156 C 259.703125 125.660156 259.980469 125.535156 260.160156 125.296875 Z M 214.800781 161.445312 L 232.742188 119.222656 C 232.945312 118.753906 232.71875 118.207031 232.25 118.003906 C 231.78125 117.804688 231.234375 118.027344 231.035156 118.496094 L 213.09375 160.71875 C 212.890625 161.1875 213.117188 161.734375 213.585938 161.9375 C 213.707031 161.984375 213.828125 162.011719 213.945312 162.011719 C 214.300781 162.007812 214.648438 161.796875 214.800781 161.445312 Z M 235.917969 111.742188 L 238.035156 106.765625 C 238.238281 106.296875 238.015625 105.75 237.542969 105.546875 C 237.066406 105.34375 236.527344 105.570312 236.324219 106.039062 L 234.207031 111.015625 C 234.003906 111.484375 234.230469 112.03125 234.699219 112.230469 C 234.820312 112.28125 234.941406 112.308594 235.0625 112.308594 C 235.421875 112.308594 235.765625 112.09375 235.917969 111.742188 Z M 207.695312 158.859375 L 215.582031 129.796875 C 215.71875 129.304688 215.421875 128.792969 214.929688 128.660156 C 214.433594 128.53125 213.925781 128.820312 213.792969 129.3125 L 205.910156 158.375 C 205.773438 158.863281 206.066406 159.378906 206.558594 159.507812 C 206.640625 159.53125 206.722656 159.542969 206.800781 159.542969 C 207.210938 159.546875 207.582031 159.273438 207.695312 158.859375 Z M 216.773438 125.410156 L 217.648438 122.195312 C 217.785156 121.703125 217.492188 121.191406 217 121.0625 C 216.507812 120.929688 215.992188 121.21875 215.859375 121.710938 L 214.984375 124.925781 C 214.847656 125.414062 215.144531 125.929688 215.636719 126.058594 C 215.71875 126.082031 215.800781 126.09375 215.878906 126.09375 C 216.289062 126.09375 216.660156 125.824219 216.773438 125.410156 Z M 191.761719 157.589844 C 192.277344 157.582031 192.6875 157.167969 192.6875 156.65625 L 192.421875 116.558594 C 192.417969 116.050781 192.007812 115.636719 191.492188 115.636719 C 191.492188 115.636719 191.488281 115.636719 191.488281 115.636719 C 190.972656 115.640625 190.5625 116.058594 190.5625 116.570312 L 190.828125 156.664062 C 190.832031 157.171875 191.242188 157.589844 191.757812 157.589844 C 191.761719 157.589844 191.761719 157.589844 191.761719 157.589844 Z M 191.445312 108.394531 C 191.957031 108.390625 192.367188 107.976562 192.367188 107.460938 L 192.332031 101.953125 C 192.324219 101.4375 191.914062 101.019531 191.394531 101.027344 C 190.882812 101.035156 190.472656 101.449219 190.472656 101.960938 L 190.507812 107.472656 C 190.515625 107.980469 190.925781 108.394531 191.4375 108.394531 C 191.4375 108.394531 191.4375 108.394531 191.445312 108.394531 Z M 200.285156 157.304688 L 205.152344 119.625 C 205.21875 119.117188 204.859375 118.65625 204.351562 118.589844 C 203.839844 118.519531 203.375 118.882812 203.3125 119.390625 L 198.445312 157.070312 C 198.378906 157.578125 198.738281 158.039062 199.246094 158.105469 C 199.285156 158.113281 199.328125 158.113281 199.367188 158.113281 C 199.828125 158.113281 200.226562 157.773438 200.285156 157.304688 Z M 205.96875 113.285156 L 206.585938 108.511719 C 206.652344 108.003906 206.292969 107.539062 205.78125 107.472656 C 205.273438 107.402344 204.808594 107.769531 204.742188 108.277344 L 204.125 113.050781 C 204.058594 113.558594 204.421875 114.023438 204.929688 114.085938 C 204.96875 114.09375 205.011719 114.09375 205.050781 114.09375 C 205.507812 114.09375 205.910156 113.753906 205.96875 113.285156 Z M 207.292969 103.046875 L 208.796875 91.402344 C 208.863281 90.894531 208.5 90.433594 207.992188 90.367188 C 207.484375 90.296875 207.019531 90.660156 206.953125 91.167969 L 205.449219 102.8125 C 205.382812 103.320312 205.746094 103.785156 206.253906 103.851562 C 206.292969 103.855469 206.335938 103.855469 206.375 103.855469 C 206.832031 103.855469 207.230469 103.515625 207.292969 103.046875 Z M 247.828125 206.816406 C 248.339844 206.757812 248.699219 206.292969 248.640625 205.785156 C 246.976562 191.882812 240.234375 179.121094 229.652344 169.84375 C 218.996094 160.507812 205.308594 155.488281 191.117188 155.742188 C 177.375 155.984375 164.1875 161.167969 153.992188 170.351562 C 143.894531 179.441406 137.378906 191.824219 135.644531 205.214844 C 135.578125 205.722656 135.9375 206.183594 136.449219 206.25 C 136.957031 206.3125 137.421875 205.957031 137.488281 205.449219 C 139.164062 192.496094 145.46875 180.523438 155.238281 171.726562 C 165.101562 162.84375 177.855469 157.828125 191.148438 157.59375 C 204.871094 157.351562 218.113281 162.199219 228.429688 171.234375 C 238.671875 180.207031 245.195312 192.554688 246.796875 206.003906 C 246.851562 206.472656 247.253906 206.824219 247.714844 206.824219 C 247.757812 206.824219 247.796875 206.824219 247.828125 206.816406 Z M 192.394531 165.515625 C 168.371094 165.515625 148.441406 182.960938 144.585938 205.859375 L 240.207031 205.859375 C 236.351562 182.960938 216.417969 165.515625 192.394531 165.515625 Z M 325.449219 213.933594 C 325.449219 213.421875 325.035156 213.007812 324.519531 213.007812 L 52.882812 213.007812 C 52.367188 213.007812 51.953125 213.421875 51.953125 213.933594 C 51.953125 214.445312 52.367188 214.863281 52.882812 214.863281 L 324.527344 214.863281 C 325.035156 214.863281 325.449219 214.445312 325.449219 213.933594 Z M 325.449219 213.933594 "/></g><g style="fill:rgb(68.238831%,29.798889%,16.079712%);fill-opacity:1;"><g transform="translate(119.50647, 252.477699)"><path style="stroke:none;" d="M 5.1875 -17.5 C 5.1875 -16.5625 5.550781 -15.691406 6.28125 -14.890625 C 7.019531 -14.097656 7.914062 -13.394531 8.96875 -12.78125 C 10.03125 -12.175781 11.082031 -11.554688 12.125 -10.921875 C 13.175781 -10.296875 14.066406 -9.523438 14.796875 -8.609375 C 15.535156 -7.691406 15.90625 -6.675781 15.90625 -5.5625 C 15.90625 -3.8125 15.257812 -2.378906 13.96875 -1.265625 C 12.675781 -0.160156 10.929688 0.390625 8.734375 0.390625 C 6.535156 0.390625 4.359375 -0.0234375 2.203125 -0.859375 L 2.203125 -2.375 C 4.378906 -1.28125 6.226562 -0.734375 7.75 -0.734375 C 9.28125 -0.734375 10.472656 -1.101562 11.328125 -1.84375 C 12.179688 -2.59375 12.609375 -3.628906 12.609375 -4.953125 C 12.609375 -5.847656 12.253906 -6.664062 11.546875 -7.40625 C 10.847656 -8.144531 9.992188 -8.785156 8.984375 -9.328125 C 7.984375 -9.867188 6.984375 -10.425781 5.984375 -11 C 4.984375 -11.582031 4.128906 -12.316406 3.421875 -13.203125 C 2.722656 -14.085938 2.375 -15.15625 2.375 -16.40625 C 2.375 -17.664062 2.929688 -18.835938 4.046875 -19.921875 C 5.171875 -21.015625 6.84375 -21.5625 9.0625 -21.5625 C 10.507812 -21.5625 12.34375 -21.234375 14.5625 -20.578125 L 14.234375 -18.40625 C 11.359375 -19.632812 8.894531 -20.25 6.84375 -20.25 C 5.738281 -19.71875 5.1875 -18.800781 5.1875 -17.5 Z M 5.1875 -17.5 "/></g></g><g style="fill:rgb(68.238831%,29.798889%,16.079712%);fill-opacity:1;"><g transform="translate(137.294101, 252.477699)"><path style="stroke:none;" d="M 18.625 -21.1875 L 18.625 -8.1875 C 18.625 -6.207031 18.410156 -4.71875 17.984375 -3.71875 C 17.796875 -3.269531 17.492188 -2.757812 17.078125 -2.1875 C 16.660156 -1.625 16.171875 -1.171875 15.609375 -0.828125 C 14.203125 -0.015625 12.445312 0.390625 10.34375 0.390625 C 5.050781 0.390625 2.40625 -2.332031 2.40625 -7.78125 L 2.40625 -21.1875 L 5.65625 -21.1875 L 5.65625 -7.515625 C 5.65625 -6.898438 5.664062 -6.398438 5.6875 -6.015625 C 5.71875 -5.628906 5.832031 -5.082031 6.03125 -4.375 C 6.238281 -3.675781 6.515625 -3.113281 6.859375 -2.6875 C 7.210938 -2.257812 7.765625 -1.875 8.515625 -1.53125 C 9.273438 -1.195312 10.179688 -1.03125 11.234375 -1.03125 C 15.222656 -1.03125 17.21875 -3.160156 17.21875 -7.421875 L 17.21875 -21.1875 Z M 18.625 -21.1875 "/></g></g><g style="fill:rgb(68.238831%,29.798889%,16.079712%);fill-opacity:1;"><g transform="translate(158.312937, 252.477699)"><path style="stroke:none;" d="M 18.96875 0.359375 L 18.4375 0.359375 L 4.421875 -17.1875 L 4.28125 -17.1875 L 4.28125 0 L 2.875 0 L 2.875 -21.1875 L 5.25 -21.1875 L 17.4375 -5.796875 L 17.5625 -5.796875 L 17.5625 -21.1875 L 18.96875 -21.1875 Z M 18.96875 0.359375 "/></g></g><g style="fill:rgb(68.238831%,29.798889%,16.079712%);fill-opacity:1;"><g transform="translate(180.163563, 252.477699)"><path style="stroke:none;" d="M 5.1875 -17.5 C 5.1875 -16.5625 5.550781 -15.691406 6.28125 -14.890625 C 7.019531 -14.097656 7.914062 -13.394531 8.96875 -12.78125 C 10.03125 -12.175781 11.082031 -11.554688 12.125 -10.921875 C 13.175781 -10.296875 14.066406 -9.523438 14.796875 -8.609375 C 15.535156 -7.691406 15.90625 -6.675781 15.90625 -5.5625 C 15.90625 -3.8125 15.257812 -2.378906 13.96875 -1.265625 C 12.675781 -0.160156 10.929688 0.390625 8.734375 0.390625 C 6.535156 0.390625 4.359375 -0.0234375 2.203125 -0.859375 L 2.203125 -2.375 C 4.378906 -1.28125 6.226562 -0.734375 7.75 -0.734375 C 9.28125 -0.734375 10.472656 -1.101562 11.328125 -1.84375 C 12.179688 -2.59375 12.609375 -3.628906 12.609375 -4.953125 C 12.609375 -5.847656 12.253906 -6.664062 11.546875 -7.40625 C 10.847656 -8.144531 9.992188 -8.785156 8.984375 -9.328125 C 7.984375 -9.867188 6.984375 -10.425781 5.984375 -11 C 4.984375 -11.582031 4.128906 -12.316406 3.421875 -13.203125 C 2.722656 -14.085938 2.375 -15.15625 2.375 -16.40625 C 2.375 -17.664062 2.929688 -18.835938 4.046875 -19.921875 C 5.171875 -21.015625 6.84375 -21.5625 9.0625 -21.5625 C 10.507812 -21.5625 12.34375 -21.234375 14.5625 -20.578125 L 14.234375 -18.40625 C 11.359375 -19.632812 8.894531 -20.25 6.84375 -20.25 C 5.738281 -19.71875 5.1875 -18.800781 5.1875 -17.5 Z M 5.1875 -17.5 "/></g></g><g style="fill:rgb(68.238831%,29.798889%,16.079712%);fill-opacity:1;"><g transform="translate(197.951195, 252.477699)"><path style="stroke:none;" d="M 5.984375 -10.5 L 5.984375 0 L 2.875 0 L 2.875 -21.1875 L 5.984375 -21.1875 L 5.984375 -11.71875 L 15.6875 -11.71875 L 15.6875 -21.1875 L 18.78125 -21.1875 L 18.78125 0 L 15.6875 0 L 15.6875 -10.5 Z M 5.984375 -10.5 "/></g></g><g style="fill:rgb(68.238831%,29.798889%,16.079712%);fill-opacity:1;"><g transform="translate(219.609869, 252.477699)"><path style="stroke:none;" d="M 5.828125 -21.1875 L 5.828125 0 L 2.875 0 L 2.875 -21.1875 Z M 5.828125 -21.1875 "/></g></g><g style="fill:rgb(68.238831%,29.798889%,16.079712%);fill-opacity:1;"><g transform="translate(228.311727, 252.477699)"><path style="stroke:none;" d="M 18.96875 0.359375 L 18.4375 0.359375 L 4.421875 -17.1875 L 4.28125 -17.1875 L 4.28125 0 L 2.875 0 L 2.875 -21.1875 L 5.25 -21.1875 L 17.4375 -5.796875 L 17.5625 -5.796875 L 17.5625 -21.1875 L 18.96875 -21.1875 Z M 18.96875 0.359375 "/></g></g><g style="fill:rgb(68.238831%,29.798889%,16.079712%);fill-opacity:1;"><g transform="translate(250.162354, 252.477699)"><path style="stroke:none;" d="M 2.875 0 L 2.875 -21.1875 L 15.71875 -21.1875 L 15.390625 -19.046875 L 9.4375 -20.03125 C 8.394531 -20.03125 7.242188 -19.847656 5.984375 -19.484375 L 5.984375 -11.71875 L 13.09375 -11.71875 L 13.09375 -10.5 L 5.984375 -10.5 L 5.984375 -1.15625 L 15.90625 -2.140625 L 15.578125 0 Z M 2.875 0 "/></g></g><g style="fill:rgb(68.238831%,29.798889%,16.079712%);fill-opacity:1;"><g transform="translate(92.655145, 273.527677)"><path style="stroke:none;" d="M 6.640625 -10.5 L 6.640625 -0.1875 C 6.640625 -0.113281 6.628906 -0.0664062 6.609375 -0.046875 C 6.585938 -0.0234375 6.519531 -0.0078125 6.40625 0 C 6.300781 0 6.15625 0 5.96875 0 L 5.984375 -4.59375 L 6.078125 -8.75 L 4.890625 -4.84375 L 4 -2.203125 C 3.96875 -2.109375 3.914062 -2.0625 3.84375 -2.0625 L 3.5 -2.0625 L 2.640625 -4.84375 L 1.4375 -8.703125 L 1.515625 -5.859375 L 1.546875 -4.703125 L 1.5625 -0.1875 C 1.5625 -0.125 1.546875 -0.078125 1.515625 -0.046875 C 1.492188 -0.0234375 1.425781 -0.0078125 1.3125 0 C 1.207031 0 1.066406 0 0.890625 0 L 0.890625 -10.3125 C 0.890625 -10.4375 0.945312 -10.5 1.0625 -10.5 L 1.5 -10.5 L 3.203125 -4.96875 L 3.765625 -3.125 L 4.296875 -4.90625 L 5.96875 -10.3125 C 6.007812 -10.4375 6.070312 -10.5 6.15625 -10.5 Z M 6.640625 -10.5 "/></g></g><g style="fill:rgb(68.238831%,29.798889%,16.079712%);fill-opacity:1;"><g transform="translate(103.125139, 273.527677)"><path style="stroke:none;" d="M 6.421875 -0.125 C 6.421875 -0.03125 6.328125 0.015625 6.140625 0.015625 C 5.960938 0.015625 5.828125 0.0078125 5.734375 0 L 4.921875 -2.984375 L 1.625 -2.984375 L 0.875 -0.140625 C 0.863281 -0.0664062 0.832031 -0.0195312 0.78125 0 C 0.738281 0.0078125 0.660156 0.015625 0.546875 0.015625 C 0.378906 0.015625 0.238281 0.0078125 0.125 0 L 3 -10.46875 C 3.019531 -10.53125 3.09375 -10.5625 3.21875 -10.5625 C 3.332031 -10.5625 3.429688 -10.550781 3.515625 -10.53125 L 6.40625 -0.1875 Z M 4.75 -3.625 L 3.9375 -6.625 C 3.53125 -8.132812 3.304688 -9.117188 3.265625 -9.578125 C 3.210938 -9.117188 2.984375 -8.132812 2.578125 -6.625 L 1.78125 -3.625 Z M 4.75 -3.625 "/></g></g><g style="fill:rgb(68.238831%,29.798889%,16.079712%);fill-opacity:1;"><g transform="translate(112.605128, 273.527677)"><path style="stroke:none;" d="M 5.53125 -0.21875 C 5.539062 -0.195312 5.546875 -0.171875 5.546875 -0.140625 C 5.546875 -0.0351562 5.457031 0.015625 5.28125 0.015625 C 5.09375 0.015625 4.953125 0.0078125 4.859375 0 C 4.421875 -1.375 4.003906 -2.429688 3.609375 -3.171875 C 3.210938 -3.921875 2.789062 -4.519531 2.34375 -4.96875 C 2.132812 -5.175781 1.875 -5.34375 1.5625 -5.46875 L 1.5625 -0.1875 C 1.5625 -0.113281 1.550781 -0.0664062 1.53125 -0.046875 C 1.507812 -0.0234375 1.441406 -0.0078125 1.328125 0 C 1.222656 0 1.078125 0 0.890625 0 L 0.890625 -10.3125 C 0.890625 -10.382812 0.894531 -10.429688 0.90625 -10.453125 C 0.925781 -10.472656 0.992188 -10.484375 1.109375 -10.484375 C 1.222656 -10.492188 1.375 -10.5 1.5625 -10.5 L 1.5625 -5.953125 L 4.8125 -10.46875 C 4.914062 -10.488281 5.054688 -10.5 5.234375 -10.5 C 5.429688 -10.5 5.53125 -10.453125 5.53125 -10.359375 C 5.53125 -10.347656 5.507812 -10.304688 5.46875 -10.234375 L 2.234375 -5.90625 C 2.890625 -5.507812 3.5 -4.835938 4.0625 -3.890625 C 4.632812 -2.953125 5.125 -1.726562 5.53125 -0.21875 Z M 5.53125 -0.21875 "/></g></g><g style="fill:rgb(68.238831%,29.798889%,16.079712%);fill-opacity:1;"><g transform="translate(121.410123, 273.527677)"><path style="stroke:none;" d="M 1.59375 -0.625 L 4.6875 -0.625 C 4.6875 -0.332031 4.679688 -0.15625 4.671875 -0.09375 C 4.660156 -0.03125 4.613281 0 4.53125 0 L 0.921875 0 L 0.921875 -10.3125 C 0.921875 -10.34375 0.929688 -10.378906 0.953125 -10.421875 C 0.984375 -10.472656 1.035156 -10.5 1.109375 -10.5 L 4.6875 -10.5 C 4.6875 -10.207031 4.679688 -10.03125 4.671875 -9.96875 C 4.671875 -9.90625 4.632812 -9.875 4.5625 -9.875 L 1.59375 -9.875 L 1.59375 -6.0625 L 4.359375 -6.0625 C 4.359375 -5.78125 4.347656 -5.601562 4.328125 -5.53125 C 4.316406 -5.46875 4.28125 -5.4375 4.21875 -5.4375 L 1.59375 -5.4375 Z M 1.59375 -0.625 "/></g></g><g style="fill:rgb(68.238831%,29.798889%,16.079712%);fill-opacity:1;"><g transform="translate(129.510113, 273.527677)"><path style="stroke:none;" d=""/></g></g><g style="fill:rgb(68.238831%,29.798889%,16.079712%);fill-opacity:1;"><g transform="translate(135.12011, 273.527677)"><path style="stroke:none;" d="M 3.109375 0.140625 C 2.628906 0.140625 2.210938 0.0390625 1.859375 -0.15625 C 1.503906 -0.363281 1.207031 -0.820312 0.96875 -1.53125 C 0.726562 -2.238281 0.609375 -3.300781 0.609375 -4.71875 C 0.609375 -6.382812 0.75 -7.648438 1.03125 -8.515625 C 1.3125 -9.390625 1.660156 -9.960938 2.078125 -10.234375 C 2.492188 -10.503906 2.976562 -10.640625 3.53125 -10.640625 C 3.8125 -10.640625 4.054688 -10.597656 4.265625 -10.515625 C 4.484375 -10.429688 4.644531 -10.332031 4.75 -10.21875 C 4.851562 -10.101562 4.90625 -10 4.90625 -9.90625 C 4.90625 -9.832031 4.890625 -9.753906 4.859375 -9.671875 C 4.835938 -9.597656 4.804688 -9.535156 4.765625 -9.484375 C 4.671875 -9.578125 4.515625 -9.679688 4.296875 -9.796875 C 4.078125 -9.921875 3.835938 -9.984375 3.578125 -9.984375 C 3.140625 -9.984375 2.757812 -9.859375 2.4375 -9.609375 C 2.125 -9.367188 1.859375 -8.859375 1.640625 -8.078125 C 1.421875 -7.304688 1.3125 -6.175781 1.3125 -4.6875 C 1.3125 -3.570312 1.398438 -2.710938 1.578125 -2.109375 C 1.753906 -1.503906 1.976562 -1.097656 2.25 -0.890625 C 2.53125 -0.679688 2.847656 -0.578125 3.203125 -0.578125 C 3.535156 -0.578125 3.851562 -0.65625 4.15625 -0.8125 C 4.46875 -0.96875 4.695312 -1.140625 4.84375 -1.328125 C 4.9375 -1.148438 4.984375 -1.003906 4.984375 -0.890625 C 4.984375 -0.742188 4.894531 -0.585938 4.71875 -0.421875 C 4.550781 -0.265625 4.320312 -0.128906 4.03125 -0.015625 C 3.75 0.0859375 3.441406 0.140625 3.109375 0.140625 Z M 3.109375 0.140625 "/></g></g><g style="fill:rgb(68.238831%,29.798889%,16.079712%);fill-opacity:1;"><g transform="translate(143.445102, 273.527677)"><path style="stroke:none;" d="M 1.59375 -0.625 L 4.6875 -0.625 C 4.6875 -0.332031 4.679688 -0.15625 4.671875 -0.09375 C 4.660156 -0.03125 4.613281 0 4.53125 0 L 0.921875 0 L 0.921875 -10.3125 C 0.921875 -10.34375 0.929688 -10.378906 0.953125 -10.421875 C 0.984375 -10.472656 1.035156 -10.5 1.109375 -10.5 L 4.6875 -10.5 C 4.6875 -10.207031 4.679688 -10.03125 4.671875 -9.96875 C 4.671875 -9.90625 4.632812 -9.875 4.5625 -9.875 L 1.59375 -9.875 L 1.59375 -6.0625 L 4.359375 -6.0625 C 4.359375 -5.78125 4.347656 -5.601562 4.328125 -5.53125 C 4.316406 -5.46875 4.28125 -5.4375 4.21875 -5.4375 L 1.59375 -5.4375 Z M 1.59375 -0.625 "/></g></g><g style="fill:rgb(68.238831%,29.798889%,16.079712%);fill-opacity:1;"><g transform="translate(151.545093, 273.527677)"><path style="stroke:none;" d="M 5.359375 -10.3125 C 5.359375 -10.382812 5.367188 -10.429688 5.390625 -10.453125 C 5.410156 -10.472656 5.472656 -10.484375 5.578125 -10.484375 C 5.691406 -10.492188 5.84375 -10.5 6.03125 -10.5 L 6.03125 -0.1875 C 6.03125 -0.0625 5.960938 0 5.828125 0 L 5.390625 0 L 3.515625 -4.25 C 3.503906 -4.269531 3.082031 -5.296875 2.25 -7.328125 L 1.515625 -9.140625 L 1.5625 -3.875 L 1.5625 -0.1875 C 1.5625 -0.113281 1.550781 -0.0664062 1.53125 -0.046875 C 1.507812 -0.0234375 1.441406 -0.0078125 1.328125 0 C 1.222656 0 1.078125 0 0.890625 0 L 0.890625 -10.3125 C 0.890625 -10.4375 0.945312 -10.5 1.0625 -10.5 L 1.53125 -10.5 L 3.359375 -6.328125 C 3.585938 -5.742188 3.882812 -5.003906 4.25 -4.109375 C 4.625 -3.222656 4.941406 -2.460938 5.203125 -1.828125 L 5.390625 -1.40625 C 5.367188 -2.84375 5.359375 -4.617188 5.359375 -6.734375 Z M 5.359375 -10.3125 "/></g></g><g style="fill:rgb(68.238831%,29.798889%,16.079712%);fill-opacity:1;"><g transform="translate(161.40008, 273.527677)"><path style="stroke:none;" d="M 5.390625 -10.5 L 5.390625 -10.03125 C 5.390625 -9.914062 5.320312 -9.859375 5.1875 -9.859375 L 3.046875 -9.859375 L 3.046875 -0.1875 C 3.046875 -0.113281 3.035156 -0.0664062 3.015625 -0.046875 C 2.992188 -0.0234375 2.925781 -0.0078125 2.8125 0 C 2.707031 0 2.5625 0 2.375 0 L 2.375 -9.859375 L 0.09375 -9.859375 L 0.09375 -10.3125 C 0.09375 -10.4375 0.15625 -10.5 0.28125 -10.5 Z M 5.390625 -10.5 "/></g></g><g style="fill:rgb(68.238831%,29.798889%,16.079712%);fill-opacity:1;"><g transform="translate(169.815069, 273.527677)"><path style="stroke:none;" d="M 2.515625 0.15625 C 2.085938 0.15625 1.722656 0.109375 1.421875 0.015625 C 1.117188 -0.0664062 0.894531 -0.164062 0.75 -0.28125 C 0.613281 -0.394531 0.546875 -0.503906 0.546875 -0.609375 C 0.546875 -0.691406 0.5625 -0.773438 0.59375 -0.859375 C 0.632812 -0.941406 0.691406 -1.015625 0.765625 -1.078125 C 1.171875 -0.710938 1.742188 -0.53125 2.484375 -0.53125 C 3.140625 -0.53125 3.625 -0.703125 3.9375 -1.046875 C 4.25 -1.398438 4.40625 -1.878906 4.40625 -2.484375 C 4.40625 -2.941406 4.328125 -3.347656 4.171875 -3.703125 C 4.015625 -4.054688 3.722656 -4.445312 3.296875 -4.875 L 1.640625 -6.5625 C 1.273438 -6.945312 1.003906 -7.300781 0.828125 -7.625 C 0.660156 -7.945312 0.578125 -8.296875 0.578125 -8.671875 C 0.578125 -9.265625 0.796875 -9.742188 1.234375 -10.109375 C 1.679688 -10.472656 2.289062 -10.65625 3.0625 -10.65625 C 3.664062 -10.65625 4.128906 -10.585938 4.453125 -10.453125 C 4.773438 -10.328125 4.9375 -10.179688 4.9375 -10.015625 C 4.9375 -9.867188 4.867188 -9.726562 4.734375 -9.59375 C 4.597656 -9.707031 4.378906 -9.804688 4.078125 -9.890625 C 3.785156 -9.984375 3.453125 -10.03125 3.078125 -10.03125 C 2.535156 -10.03125 2.101562 -9.90625 1.78125 -9.65625 C 1.457031 -9.414062 1.296875 -9.09375 1.296875 -8.6875 C 1.296875 -8.382812 1.363281 -8.109375 1.5 -7.859375 C 1.644531 -7.609375 1.863281 -7.328125 2.15625 -7.015625 L 4 -5.171875 C 4.425781 -4.722656 4.71875 -4.300781 4.875 -3.90625 C 5.03125 -3.519531 5.109375 -3.066406 5.109375 -2.546875 C 5.109375 -1.722656 4.894531 -1.066406 4.46875 -0.578125 C 4.050781 -0.0859375 3.398438 0.15625 2.515625 0.15625 Z M 2.515625 0.15625 "/></g></g><g style="fill:rgb(68.238831%,29.798889%,16.079712%);fill-opacity:1;"><g transform="translate(178.365064, 273.527677)"><path style="stroke:none;" d=""/></g></g><g style="fill:rgb(68.238831%,29.798889%,16.079712%);fill-opacity:1;"><g transform="translate(183.97506, 273.527677)"><path style="stroke:none;" d="M 3.34375 0.15625 C 2.6875 0.15625 2.160156 -0.0078125 1.765625 -0.34375 C 1.367188 -0.6875 1.078125 -1.25 0.890625 -2.03125 C 0.703125 -2.820312 0.609375 -3.921875 0.609375 -5.328125 C 0.609375 -7.222656 0.84375 -8.582031 1.3125 -9.40625 C 1.78125 -10.238281 2.515625 -10.65625 3.515625 -10.65625 C 4.171875 -10.65625 4.6875 -10.484375 5.0625 -10.140625 C 5.445312 -9.796875 5.726562 -9.238281 5.90625 -8.46875 C 6.082031 -7.707031 6.171875 -6.664062 6.171875 -5.34375 C 6.171875 -4 6.070312 -2.925781 5.875 -2.125 C 5.675781 -1.332031 5.367188 -0.753906 4.953125 -0.390625 C 4.546875 -0.0234375 4.007812 0.15625 3.34375 0.15625 Z M 3.359375 -0.546875 C 3.859375 -0.546875 4.257812 -0.703125 4.5625 -1.015625 C 4.875 -1.328125 5.097656 -1.832031 5.234375 -2.53125 C 5.378906 -3.226562 5.453125 -4.171875 5.453125 -5.359375 C 5.453125 -6.503906 5.382812 -7.410156 5.25 -8.078125 C 5.125 -8.753906 4.921875 -9.234375 4.640625 -9.515625 C 4.359375 -9.804688 3.976562 -9.953125 3.5 -9.953125 C 3 -9.953125 2.59375 -9.796875 2.28125 -9.484375 C 1.96875 -9.171875 1.734375 -8.660156 1.578125 -7.953125 C 1.421875 -7.242188 1.34375 -6.289062 1.34375 -5.09375 C 1.34375 -3.976562 1.410156 -3.085938 1.546875 -2.421875 C 1.679688 -1.765625 1.894531 -1.285156 2.1875 -0.984375 C 2.476562 -0.691406 2.867188 -0.546875 3.359375 -0.546875 Z M 3.359375 -0.546875 "/></g></g><g style="fill:rgb(68.238831%,29.798889%,16.079712%);fill-opacity:1;"><g transform="translate(193.710062, 273.527677)"><path style="stroke:none;" d="M 3.59375 0.15625 C 2.820312 0.15625 2.238281 0.00390625 1.84375 -0.296875 C 1.445312 -0.597656 1.1875 -0.988281 1.0625 -1.46875 C 0.945312 -1.957031 0.890625 -2.5625 0.890625 -3.28125 L 0.890625 -10.3125 C 0.890625 -10.375 0.894531 -10.414062 0.90625 -10.4375 C 0.925781 -10.46875 0.992188 -10.484375 1.109375 -10.484375 C 1.234375 -10.492188 1.390625 -10.5 1.578125 -10.5 L 1.578125 -3.265625 C 1.578125 -2.679688 1.617188 -2.191406 1.703125 -1.796875 C 1.796875 -1.410156 1.988281 -1.097656 2.28125 -0.859375 C 2.582031 -0.617188 3.019531 -0.5 3.59375 -0.5 C 3.945312 -0.5 4.296875 -0.53125 4.640625 -0.59375 C 4.992188 -0.664062 5.257812 -0.75 5.4375 -0.84375 L 5.4375 -10.3125 C 5.4375 -10.375 5.445312 -10.414062 5.46875 -10.4375 C 5.5 -10.46875 5.566406 -10.484375 5.671875 -10.484375 C 5.785156 -10.492188 5.9375 -10.5 6.125 -10.5 L 6.125 -0.359375 C 5.90625 -0.222656 5.554688 -0.101562 5.078125 0 C 4.609375 0.101562 4.113281 0.15625 3.59375 0.15625 Z M 3.59375 0.15625 "/></g></g><g style="fill:rgb(68.238831%,29.798889%,16.079712%);fill-opacity:1;"><g transform="translate(203.655058, 273.527677)"><path style="stroke:none;" d="M 5.390625 -10.5 L 5.390625 -10.03125 C 5.390625 -9.914062 5.320312 -9.859375 5.1875 -9.859375 L 3.046875 -9.859375 L 3.046875 -0.1875 C 3.046875 -0.113281 3.035156 -0.0664062 3.015625 -0.046875 C 2.992188 -0.0234375 2.925781 -0.0078125 2.8125 0 C 2.707031 0 2.5625 0 2.375 0 L 2.375 -9.859375 L 0.09375 -9.859375 L 0.09375 -10.3125 C 0.09375 -10.4375 0.15625 -10.5 0.28125 -10.5 Z M 5.390625 -10.5 "/></g></g><g style="fill:rgb(68.238831%,29.798889%,16.079712%);fill-opacity:1;"><g transform="translate(212.070046, 273.527677)"><path style="stroke:none;" d=""/></g></g><g style="fill:rgb(68.238831%,29.798889%,16.079712%);fill-opacity:1;"><g transform="translate(217.680043, 273.527677)"><path style="stroke:none;" d="M 3.34375 0.15625 C 2.6875 0.15625 2.160156 -0.0078125 1.765625 -0.34375 C 1.367188 -0.6875 1.078125 -1.25 0.890625 -2.03125 C 0.703125 -2.820312 0.609375 -3.921875 0.609375 -5.328125 C 0.609375 -7.222656 0.84375 -8.582031 1.3125 -9.40625 C 1.78125 -10.238281 2.515625 -10.65625 3.515625 -10.65625 C 4.171875 -10.65625 4.6875 -10.484375 5.0625 -10.140625 C 5.445312 -9.796875 5.726562 -9.238281 5.90625 -8.46875 C 6.082031 -7.707031 6.171875 -6.664062 6.171875 -5.34375 C 6.171875 -4 6.070312 -2.925781 5.875 -2.125 C 5.675781 -1.332031 5.367188 -0.753906 4.953125 -0.390625 C 4.546875 -0.0234375 4.007812 0.15625 3.34375 0.15625 Z M 3.359375 -0.546875 C 3.859375 -0.546875 4.257812 -0.703125 4.5625 -1.015625 C 4.875 -1.328125 5.097656 -1.832031 5.234375 -2.53125 C 5.378906 -3.226562 5.453125 -4.171875 5.453125 -5.359375 C 5.453125 -6.503906 5.382812 -7.410156 5.25 -8.078125 C 5.125 -8.753906 4.921875 -9.234375 4.640625 -9.515625 C 4.359375 -9.804688 3.976562 -9.953125 3.5 -9.953125 C 3 -9.953125 2.59375 -9.796875 2.28125 -9.484375 C 1.96875 -9.171875 1.734375 -8.660156 1.578125 -7.953125 C 1.421875 -7.242188 1.34375 -6.289062 1.34375 -5.09375 C 1.34375 -3.976562 1.410156 -3.085938 1.546875 -2.421875 C 1.679688 -1.765625 1.894531 -1.285156 2.1875 -0.984375 C 2.476562 -0.691406 2.867188 -0.546875 3.359375 -0.546875 Z M 3.359375 -0.546875 "/></g></g><g style="fill:rgb(68.238831%,29.798889%,16.079712%);fill-opacity:1;"><g transform="translate(227.415039, 273.527677)"><path style="stroke:none;" d="M 4.6875 -10.5 C 4.6875 -10.207031 4.679688 -10.03125 4.671875 -9.96875 C 4.671875 -9.914062 4.632812 -9.890625 4.5625 -9.890625 L 1.59375 -9.890625 L 1.59375 -6.078125 L 4.359375 -6.078125 C 4.359375 -5.796875 4.347656 -5.617188 4.328125 -5.546875 C 4.316406 -5.472656 4.28125 -5.4375 4.21875 -5.4375 L 1.59375 -5.4375 L 1.59375 -0.1875 C 1.59375 -0.144531 1.582031 -0.101562 1.5625 -0.0625 C 1.539062 -0.0195312 1.488281 0 1.40625 0 L 0.921875 0 L 0.921875 -10.3125 C 0.921875 -10.34375 0.929688 -10.378906 0.953125 -10.421875 C 0.984375 -10.472656 1.035156 -10.5 1.109375 -10.5 Z M 4.6875 -10.5 "/></g></g><g style="fill:rgb(68.238831%,29.798889%,16.079712%);fill-opacity:1;"><g transform="translate(235.335037, 273.527677)"><path style="stroke:none;" d=""/></g></g><g style="fill:rgb(68.238831%,29.798889%,16.079712%);fill-opacity:1;"><g transform="translate(240.945033, 273.527677)"><path style="stroke:none;" d="M 2.515625 0.15625 C 2.085938 0.15625 1.722656 0.109375 1.421875 0.015625 C 1.117188 -0.0664062 0.894531 -0.164062 0.75 -0.28125 C 0.613281 -0.394531 0.546875 -0.503906 0.546875 -0.609375 C 0.546875 -0.691406 0.5625 -0.773438 0.59375 -0.859375 C 0.632812 -0.941406 0.691406 -1.015625 0.765625 -1.078125 C 1.171875 -0.710938 1.742188 -0.53125 2.484375 -0.53125 C 3.140625 -0.53125 3.625 -0.703125 3.9375 -1.046875 C 4.25 -1.398438 4.40625 -1.878906 4.40625 -2.484375 C 4.40625 -2.941406 4.328125 -3.347656 4.171875 -3.703125 C 4.015625 -4.054688 3.722656 -4.445312 3.296875 -4.875 L 1.640625 -6.5625 C 1.273438 -6.945312 1.003906 -7.300781 0.828125 -7.625 C 0.660156 -7.945312 0.578125 -8.296875 0.578125 -8.671875 C 0.578125 -9.265625 0.796875 -9.742188 1.234375 -10.109375 C 1.679688 -10.472656 2.289062 -10.65625 3.0625 -10.65625 C 3.664062 -10.65625 4.128906 -10.585938 4.453125 -10.453125 C 4.773438 -10.328125 4.9375 -10.179688 4.9375 -10.015625 C 4.9375 -9.867188 4.867188 -9.726562 4.734375 -9.59375 C 4.597656 -9.707031 4.378906 -9.804688 4.078125 -9.890625 C 3.785156 -9.984375 3.453125 -10.03125 3.078125 -10.03125 C 2.535156 -10.03125 2.101562 -9.90625 1.78125 -9.65625 C 1.457031 -9.414062 1.296875 -9.09375 1.296875 -8.6875 C 1.296875 -8.382812 1.363281 -8.109375 1.5 -7.859375 C 1.644531 -7.609375 1.863281 -7.328125 2.15625 -7.015625 L 4 -5.171875 C 4.425781 -4.722656 4.71875 -4.300781 4.875 -3.90625 C 5.03125 -3.519531 5.109375 -3.066406 5.109375 -2.546875 C 5.109375 -1.722656 4.894531 -1.066406 4.46875 -0.578125 C 4.050781 -0.0859375 3.398438 0.15625 2.515625 0.15625 Z M 2.515625 0.15625 "/></g></g><g style="fill:rgb(68.238831%,29.798889%,16.079712%);fill-opacity:1;"><g transform="translate(249.495028, 273.527677)"><path style="stroke:none;" d="M 3.34375 0.15625 C 2.6875 0.15625 2.160156 -0.0078125 1.765625 -0.34375 C 1.367188 -0.6875 1.078125 -1.25 0.890625 -2.03125 C 0.703125 -2.820312 0.609375 -3.921875 0.609375 -5.328125 C 0.609375 -7.222656 0.84375 -8.582031 1.3125 -9.40625 C 1.78125 -10.238281 2.515625 -10.65625 3.515625 -10.65625 C 4.171875 -10.65625 4.6875 -10.484375 5.0625 -10.140625 C 5.445312 -9.796875 5.726562 -9.238281 5.90625 -8.46875 C 6.082031 -7.707031 6.171875 -6.664062 6.171875 -5.34375 C 6.171875 -4 6.070312 -2.925781 5.875 -2.125 C 5.675781 -1.332031 5.367188 -0.753906 4.953125 -0.390625 C 4.546875 -0.0234375 4.007812 0.15625 3.34375 0.15625 Z M 3.359375 -0.546875 C 3.859375 -0.546875 4.257812 -0.703125 4.5625 -1.015625 C 4.875 -1.328125 5.097656 -1.832031 5.234375 -2.53125 C 5.378906 -3.226562 5.453125 -4.171875 5.453125 -5.359375 C 5.453125 -6.503906 5.382812 -7.410156 5.25 -8.078125 C 5.125 -8.753906 4.921875 -9.234375 4.640625 -9.515625 C 4.359375 -9.804688 3.976562 -9.953125 3.5 -9.953125 C 3 -9.953125 2.59375 -9.796875 2.28125 -9.484375 C 1.96875 -9.171875 1.734375 -8.660156 1.578125 -7.953125 C 1.421875 -7.242188 1.34375 -6.289062 1.34375 -5.09375 C 1.34375 -3.976562 1.410156 -3.085938 1.546875 -2.421875 C 1.679688 -1.765625 1.894531 -1.285156 2.1875 -0.984375 C 2.476562 -0.691406 2.867188 -0.546875 3.359375 -0.546875 Z M 3.359375 -0.546875 "/></g></g><g style="fill:rgb(68.238831%,29.798889%,16.079712%);fill-opacity:1;"><g transform="translate(259.230024, 273.527677)"><path style="stroke:none;" d="M 0.890625 -10.234375 C 0.890625 -10.328125 0.894531 -10.390625 0.90625 -10.421875 C 0.925781 -10.453125 0.992188 -10.472656 1.109375 -10.484375 C 1.234375 -10.492188 1.390625 -10.5 1.578125 -10.5 L 1.578125 -0.625 L 4.703125 -0.625 L 4.703125 -0.1875 C 4.703125 -0.113281 4.6875 -0.0625 4.65625 -0.03125 C 4.632812 -0.0078125 4.585938 0 4.515625 0 L 0.890625 0 Z M 0.890625 -10.234375 "/></g></g><g style="fill:rgb(68.238831%,29.798889%,16.079712%);fill-opacity:1;"><g transform="translate(267.150022, 273.527677)"><path style="stroke:none;" d="M 6.421875 -0.125 C 6.421875 -0.03125 6.328125 0.015625 6.140625 0.015625 C 5.960938 0.015625 5.828125 0.0078125 5.734375 0 L 4.921875 -2.984375 L 1.625 -2.984375 L 0.875 -0.140625 C 0.863281 -0.0664062 0.832031 -0.0195312 0.78125 0 C 0.738281 0.0078125 0.660156 0.015625 0.546875 0.015625 C 0.378906 0.015625 0.238281 0.0078125 0.125 0 L 3 -10.46875 C 3.019531 -10.53125 3.09375 -10.5625 3.21875 -10.5625 C 3.332031 -10.5625 3.429688 -10.550781 3.515625 -10.53125 L 6.40625 -0.1875 Z M 4.75 -3.625 L 3.9375 -6.625 C 3.53125 -8.132812 3.304688 -9.117188 3.265625 -9.578125 C 3.210938 -9.117188 2.984375 -8.132812 2.578125 -6.625 L 1.78125 -3.625 Z M 4.75 -3.625 "/></g></g><g style="fill:rgb(68.238831%,29.798889%,16.079712%);fill-opacity:1;"><g transform="translate(276.630009, 273.527677)"><path style="stroke:none;" d="M 5.21875 -7.6875 C 5.21875 -6.851562 5.070312 -6.1875 4.78125 -5.6875 C 4.5 -5.195312 4.097656 -4.859375 3.578125 -4.671875 C 3.898438 -4.222656 4.21875 -3.625 4.53125 -2.875 C 4.851562 -2.132812 5.0625 -1.242188 5.15625 -0.203125 C 5.15625 -0.117188 5.132812 -0.0625 5.09375 -0.03125 C 5.0625 -0.0078125 4.972656 0.00390625 4.828125 0.015625 L 4.453125 0 C 4.316406 -1.195312 4.09375 -2.164062 3.78125 -2.90625 C 3.476562 -3.644531 3.1875 -4.1875 2.90625 -4.53125 C 2.84375 -4.519531 2.734375 -4.515625 2.578125 -4.515625 L 1.5625 -4.515625 L 1.5625 -0.1875 C 1.5625 -0.113281 1.550781 -0.0664062 1.53125 -0.046875 C 1.507812 -0.0234375 1.441406 -0.0078125 1.328125 0 C 1.222656 0 1.078125 0 0.890625 0 L 0.890625 -10.3125 C 0.890625 -10.34375 0.898438 -10.378906 0.921875 -10.421875 C 0.941406 -10.472656 0.988281 -10.5 1.0625 -10.5 L 2.65625 -10.5 C 3.550781 -10.5 4.203125 -10.25 4.609375 -9.75 C 5.015625 -9.25 5.21875 -8.5625 5.21875 -7.6875 Z M 2.609375 -5.140625 C 3.242188 -5.140625 3.71875 -5.359375 4.03125 -5.796875 C 4.34375 -6.242188 4.5 -6.878906 4.5 -7.703125 C 4.5 -8.378906 4.359375 -8.910156 4.078125 -9.296875 C 3.804688 -9.691406 3.34375 -9.890625 2.6875 -9.890625 L 1.5625 -9.890625 L 1.5625 -5.140625 Z M 2.609375 -5.140625 "/></g></g></g></svg>